<?xml version="1.0" encoding="utf-8"?>
<!-- Generator: Adobe Illustrator 26.3.1, SVG Export Plug-In . SVG Version: 6.00 Build 0)  -->
<svg version="1.1" id="Layer_1" xmlns="http://www.w3.org/2000/svg" xmlns:xlink="http://www.w3.org/1999/xlink" x="0px" y="0px"
	 viewBox="0 0 700 700" style="enable-background:new 0 0 700 700;" xml:space="preserve">
<style type="text/css">
	.st0{fill:#FFFFFF;}
</style>
<path class="st0" d="M331.1,114.4c-39.6,39.8-79.2,79.7-118.7,119.5H91.5c-10.1,0-18.5,8.4-18.5,18.5v195.3
	c0,10.1,8.4,18.5,18.5,18.5h120.8c39.6,39.8,79.2,79.6,118.7,119.5c11.4,11.5,31.6,3,31.6-13.1V127.5
	C362.7,111.4,342.5,102.9,331.1,114.4L331.1,114.4z"/>
<path class="st0" d="M427.6,183.3c-22.4-8.3-32,27.5-9.8,35.7c124.5,46.1,124.6,215.8,0.1,262c-22.2,8.2-12.6,44,9.8,35.7
	C587.2,457.5,587.1,242.4,427.6,183.3L427.6,183.3z"/>
<path class="st0" d="M456.1,111.9c-22.5-8.1-32.1,27.7-9.8,35.7c193,69.2,193.1,335.6,0.1,404.9c-22.3,8-12.7,43.8,9.8,35.7
	C684,506.3,683.9,193.5,456.1,111.9L456.1,111.9z"/>
</svg>
