<?xml version="1.0" encoding="utf-8"?>
<!-- Generator: Adobe Illustrator 26.3.1, SVG Export Plug-In . SVG Version: 6.00 Build 0)  -->
<svg version="1.1" id="Layer_1" xmlns="http://www.w3.org/2000/svg" xmlns:xlink="http://www.w3.org/1999/xlink" x="0px" y="0px"
	 viewBox="0 0 700 700" style="enable-background:new 0 0 700 700;" xml:space="preserve">
<style type="text/css">
	.st0{fill:#FFFFFF;}
</style>
<g>
	<path class="st0" d="M265.1,265.1c-2.4,2.4-4.8,4.8-7.1,7.2h-80.8c-6.8,0-12.4,5.6-12.4,12.4v130.6c0,6.8,5.6,12.4,12.4,12.4H258
		c26.5,26.6,53,53.2,79.4,79.9c7.6,7.7,21.1,2,21.1-8.8V358.5L265.1,265.1z"/>
	<path class="st0" d="M358.5,326.7V201.2c0-10.8-13.5-16.5-21.1-8.8c-18.8,18.9-37.6,37.8-56.4,56.8L358.5,326.7z"/>
</g>
<g>
	<path class="st0" d="M395.3,262.4c64.7,24,79.2,98,43.2,144.3l17.2,17.2c48-58.7,30.1-154.3-53.8-185.4
		C386.9,233,380.5,256.9,395.3,262.4z"/>
	<path class="st0" d="M422.6,422.6c-7.8,6.1-16.8,11.2-27.2,15c-14.8,5.5-8.4,29.4,6.6,23.9c14.6-5.4,27.2-12.9,37.8-21.7
		L422.6,422.6z"/>
</g>
<g>
	<path class="st0" d="M459.8,459.8c-12.8,10.5-27.9,19.3-45.4,25.6c-14.9,5.3-8.5,29.3,6.6,23.9c21.8-7.9,40.5-18.9,56.1-32.2
		L459.8,459.8z"/>
	<path class="st0" d="M414.3,214.7c103.4,37.1,124,158.8,61.7,229.5l17.2,17.2c74.2-83.2,50.1-226.8-72.3-270.6
		C405.9,185.4,399.4,209.3,414.3,214.7z"/>
</g>
<path class="st0" d="M518.8,534.7L518.8,534.7c-4.4,4.4-11.5,4.4-15.9,0L165.3,197.1c-4.4-4.4-4.4-11.5,0-15.9l0,0
	c4.4-4.4,11.5-4.4,15.9,0l337.6,337.6C523.2,523.2,523.2,530.3,518.8,534.7z"/>
</svg>
